<svg id="visual" viewBox="0 0 900 600" width="900" height="600" xmlns="http://www.w3.org/2000/svg" xmlns:xlink="http://www.w3.org/1999/xlink" version="1.1"><rect width="900" height="600" fill="#0d0a0a"></rect><g><g transform="translate(539 487)"><path d="M56.6 -55C69.3 -43.9 72.6 -22 68.4 -4.2C64.1 13.5 52.3 27 39.7 37.8C27 48.7 13.5 56.8 1.7 55.1C-10 53.3 -20.1 41.7 -38.2 30.9C-56.3 20.1 -82.5 10 -86.2 -3.7C-89.9 -17.4 -71.1 -34.9 -53 -46C-34.9 -57 -17.4 -61.8 2.3 -64C22 -66.3 43.9 -66.1 56.6 -55Z" stroke="#071b1a" fill="none" stroke-width="7"></path></g><g transform="translate(78 20)"><path d="M21.9 -18.5C28.9 -15 35.1 -7.5 39.4 4.2C43.6 16 45.7 31.9 38.8 40.7C31.9 49.5 16 51.2 2.2 49C-11.6 46.8 -23.1 40.7 -36.8 31.9C-50.4 23.1 -66.2 11.6 -64.7 1.4C-63.3 -8.7 -44.7 -17.4 -31 -20.9C-17.4 -24.4 -8.7 -22.7 -0.6 -22.1C7.5 -21.5 15 -22.1 21.9 -18.5Z" stroke="#071b1a" fill="none" stroke-width="7"></path></g><g transform="translate(880 174)"><path d="M52.6 -51.8C61.9 -43.4 58.6 -21.7 57.2 -1.4C55.8 18.9 56.3 37.9 47.1 47.7C37.9 57.4 18.9 58.1 -0.5 58.6C-20 59.1 -40 59.5 -49.6 49.7C-59.2 40 -58.4 20 -59.7 -1.3C-61.1 -22.7 -64.5 -45.3 -54.9 -53.7C-45.3 -62.1 -22.7 -56.2 -0.5 -55.7C21.7 -55.2 43.4 -60.2 52.6 -51.8Z" stroke="#071b1a" fill="none" stroke-width="7"></path></g><g transform="translate(700 16)"><path d="M38.8 -44.3C47.6 -30.1 50 -15 47.7 -2.3C45.4 10.5 38.5 21 29.8 34.8C21 48.6 10.5 65.6 0.1 65.5C-10.3 65.5 -20.7 48.3 -33.7 34.5C-46.8 20.7 -62.5 10.3 -66.7 -4.2C-70.9 -18.7 -63.5 -37.5 -50.5 -51.7C-37.5 -66 -18.7 -75.8 -1.8 -73.9C15 -72.1 30.1 -58.6 38.8 -44.3Z" stroke="#071b1a" fill="none" stroke-width="7"></path></g><g transform="translate(870 460)"><path d="M45.5 -38.5C57.5 -33.5 64.7 -16.8 59.2 -5.5C53.7 5.8 35.6 11.6 23.6 25.7C11.6 39.8 5.8 62.2 -0.6 62.8C-7 63.4 -13.9 42.1 -26.7 28C-39.4 13.9 -58 7 -63 -4.9C-67.9 -16.8 -59.2 -33.6 -46.4 -38.7C-33.6 -43.7 -16.8 -36.9 0 -36.9C16.8 -36.8 33.5 -43.5 45.5 -38.5Z" stroke="#071b1a" fill="none" stroke-width="7"></path></g><g transform="translate(129 513)"><path d="M12.3 -13.1C16 -8.7 18.9 -4.3 20.3 1.4C21.6 7.1 21.4 14.1 17.8 17C14.1 19.8 7.1 18.4 0.5 18C-6.1 17.5 -12.3 18 -16.8 15.1C-21.4 12.3 -24.3 6.1 -23.5 0.9C-22.6 -4.4 -17.9 -8.8 -13.4 -13.3C-8.8 -17.7 -4.4 -22.2 0 -22.1C4.3 -22.1 8.7 -17.6 12.3 -13.1Z" stroke="#071b1a" fill="none" stroke-width="7"></path></g><g transform="translate(370 125)"><path d="M14.5 -12.1C19.1 -9.9 23.4 -4.9 24.2 0.8C25.1 6.6 22.5 13.3 17.9 18.1C13.3 23 6.6 26.1 0.4 25.8C-5.9 25.4 -11.7 21.5 -15.8 16.6C-19.8 11.7 -22 5.9 -23.5 -1.6C-25.1 -9 -26.1 -18 -22 -20.2C-18 -22.4 -9 -17.8 -2 -15.8C4.9 -13.8 9.9 -14.3 14.5 -12.1Z" stroke="#071b1a" fill="none" stroke-width="7"></path></g><g transform="translate(4 241)"><path d="M20.7 -18.3C29.3 -12.1 40.4 -6.1 40.1 -0.2C39.9 5.6 28.4 11.3 19.8 18.6C11.3 25.9 5.6 34.9 -1 35.9C-7.6 36.9 -15.3 29.9 -18.5 22.6C-21.7 15.3 -20.5 7.6 -18.9 1.6C-17.3 -4.4 -15.2 -8.8 -12 -15.1C-8.8 -21.3 -4.4 -29.4 0.8 -30.2C6.1 -31 12.1 -24.6 20.7 -18.3Z" stroke="#071b1a" fill="none" stroke-width="7"></path></g><g transform="translate(636 233)"><path d="M30 -31.7C35.9 -24.1 35.7 -12 33.4 -2.3C31.1 7.4 26.7 14.9 20.8 24.1C14.9 33.4 7.4 44.4 -4.3 48.7C-16 52.9 -32 50.4 -39.1 41.2C-46.3 32 -44.7 16 -41.5 3.2C-38.3 -9.6 -33.5 -19.1 -26.3 -26.7C-19.1 -34.3 -9.6 -40 1.2 -41.2C12 -42.4 24.1 -39.3 30 -31.7Z" stroke="#071b1a" fill="none" stroke-width="7"></path></g><g transform="translate(336 356)"><path d="M8.5 -8.8C10.8 -6.3 12.3 -3.1 11.6 -0.7C10.9 1.7 8 3.4 5.7 4.7C3.4 6 1.7 6.9 -0.5 7.4C-2.7 7.9 -5.5 8.1 -7.7 6.8C-10 5.5 -11.8 2.7 -11.6 0.1C-11.5 -2.5 -9.4 -4.9 -7.2 -7.4C-4.9 -9.9 -2.5 -12.5 0.3 -12.8C3.1 -13.2 6.3 -11.3 8.5 -8.8Z" stroke="#071b1a" fill="none" stroke-width="7"></path></g></g></svg>