<svg id="visual" viewBox="0 0 900 600" width="900" height="600" xmlns="http://www.w3.org/2000/svg" xmlns:xlink="http://www.w3.org/1999/xlink" version="1.1"><rect width="900" height="600" fill="#000000"></rect><g><g transform="translate(336 222)"><path d="M52.7 -65.9C60.6 -56.2 53.9 -32.3 58.8 -9.7C63.6 12.9 79.9 34.2 75.3 44.6C70.6 54.9 45.1 54.2 24.9 56.4C4.7 58.6 -10.1 63.6 -20.3 58.6C-30.4 53.7 -35.8 38.8 -41.4 25.6C-46.9 12.5 -52.5 1.1 -55.4 -14.6C-58.4 -30.3 -58.7 -50.3 -49 -59.7C-39.4 -69.1 -19.7 -67.7 1.4 -69.4C22.4 -71 44.8 -75.5 52.7 -65.9Z" stroke="#071b1a" fill="none" stroke-width="7"></path></g><g transform="translate(845 233)"><path d="M19.7 -27.5C22.7 -21 20.2 -12.1 24.8 -2C29.5 8.1 41.3 19.4 40.7 26.2C40 33.1 26.9 35.5 15.8 36.7C4.6 37.8 -4.6 37.8 -10.6 33.6C-16.6 29.4 -19.4 21.2 -26.2 13.3C-32.9 5.4 -43.4 -2.1 -43.3 -8.5C-43.1 -14.9 -32.3 -20.2 -23.3 -25.7C-14.3 -31.1 -7.2 -36.7 0.6 -37.4C8.4 -38.1 16.8 -34 19.7 -27.5Z" stroke="#071b1a" fill="none" stroke-width="7"></path></g><g transform="translate(404 599)"><path d="M12 -15.5C15 -11.7 16.5 -7.5 17.2 -3.1C17.9 1.3 17.8 5.8 15.5 8.2C13.2 10.6 8.7 11 4.8 11.9C0.8 12.9 -2.5 14.4 -4.3 13.1C-6.1 11.9 -6.4 7.9 -9.6 4.5C-12.8 1.1 -18.9 -1.7 -19.6 -4.5C-20.3 -7.3 -15.6 -10.2 -11.5 -13.7C-7.3 -17.2 -3.6 -21.4 0.4 -21.8C4.5 -22.3 9 -19.2 12 -15.5Z" stroke="#071b1a" fill="none" stroke-width="7"></path></g><g transform="translate(56 248)"><path d="M47.5 -56.9C56.1 -49.5 53.7 -29.3 49.2 -14.6C44.7 0 38.1 9.1 31.9 17C25.6 24.8 19.7 31.4 12.1 34.9C4.4 38.5 -5 39 -20.7 40.4C-36.5 41.8 -58.6 44.2 -61.1 36.7C-63.6 29.3 -46.6 12 -40.5 -4.4C-34.3 -20.8 -39 -36.4 -34 -44.5C-29.1 -52.6 -14.5 -53.2 2.5 -56.1C19.5 -59.1 39 -64.4 47.5 -56.9Z" stroke="#071b1a" fill="none" stroke-width="7"></path></g><g transform="translate(133 486)"><path d="M15.7 -20.6C20.3 -15 23.7 -9.9 23.5 -5C23.3 -0.2 19.3 4.3 16.5 9.8C13.7 15.3 11.9 21.6 8 23.9C4 26.2 -2.1 24.5 -10 23.4C-17.9 22.3 -27.6 21.9 -29.9 17.4C-32.3 13 -27.5 4.5 -23.2 -1.4C-19 -7.3 -15.4 -10.7 -11.6 -16.4C-7.8 -22.2 -3.9 -30.4 0.8 -31.4C5.6 -32.4 11.2 -26.2 15.7 -20.6Z" stroke="#071b1a" fill="none" stroke-width="7"></path></g><g transform="translate(203 27)"><path d="M12.7 -13.3C19.2 -9.7 29.2 -8.3 31.8 -4C34.5 0.3 30 7.5 24.6 11.7C19.1 15.8 12.9 16.9 7.2 18.5C1.5 20.1 -3.6 22 -8.8 21.4C-14 20.8 -19.3 17.5 -19.9 13.1C-20.5 8.7 -16.4 3.3 -15.8 -3.2C-15.2 -9.8 -18.1 -17.4 -16.1 -21.9C-14 -26.3 -7 -27.6 -2 -25.3C3.1 -23 6.2 -17 12.7 -13.3Z" stroke="#071b1a" fill="none" stroke-width="7"></path></g><g transform="translate(781 594)"><path d="M14.4 -16.7C17.5 -14.6 18.2 -8.9 17.9 -4.1C17.6 0.7 16.5 4.8 13.9 6.8C11.3 8.8 7.2 8.8 4.2 8.6C1.2 8.4 -0.8 8.1 -3.7 8C-6.5 7.9 -10.2 8 -11.3 6.4C-12.4 4.8 -10.9 1.6 -11 -2.6C-11.1 -6.8 -12.6 -11.8 -11.1 -14.2C-9.5 -16.6 -4.7 -16.4 0.5 -16.9C5.6 -17.4 11.3 -18.8 14.4 -16.7Z" stroke="#071b1a" fill="none" stroke-width="7"></path></g><g transform="translate(516 16)"><path d="M24.4 -24.2C32.7 -22.1 41.1 -15.4 42.1 -7.7C43.1 -0.1 36.6 8.6 31.3 18.3C26 27.9 21.9 38.6 13.7 44.6C5.4 50.6 -7 52 -17.7 48.2C-28.4 44.5 -37.3 35.6 -36.8 26.2C-36.4 16.8 -26.6 6.9 -25 -4.9C-23.5 -16.7 -30.3 -30.5 -27.6 -33.5C-24.8 -36.5 -12.4 -28.8 -2.2 -26.2C8.1 -23.7 16.1 -26.2 24.4 -24.2Z" stroke="#071b1a" fill="none" stroke-width="7"></path></g><g transform="translate(574 273)"><path d="M40.4 -52.6C52 -38.4 60.7 -25.3 66 -9.5C71.4 6.3 73.3 24.9 67.5 42.7C61.7 60.6 48.1 77.7 30.2 85C12.4 92.4 -9.8 90 -25.3 79.9C-40.9 69.8 -50 51.9 -49.3 36.5C-48.6 21.1 -38.2 8.1 -37.5 -8.5C-36.8 -25 -45.8 -45.1 -41.1 -60.6C-36.5 -76 -18.2 -86.7 -1.9 -84.4C14.4 -82.2 28.8 -66.8 40.4 -52.6Z" stroke="#071b1a" fill="none" stroke-width="7"></path></g></g></svg>