<svg id="visual" viewBox="0 0 900 600" width="900" height="600" xmlns="http://www.w3.org/2000/svg" xmlns:xlink="http://www.w3.org/1999/xlink" version="1.1"><rect x="0" y="0" width="900" height="600" fill="#010202"></rect><path d="M0 82L8.3 72.5C16.7 63 33.3 44 50 44.8C66.7 45.7 83.3 66.3 100 64.3C116.7 62.3 133.3 37.7 150 33.2C166.7 28.7 183.3 44.3 200 48C216.7 51.7 233.3 43.3 250 35.3C266.7 27.3 283.3 19.7 300 19C316.7 18.3 333.3 24.7 350 25.7C366.7 26.7 383.3 22.3 400 23.2C416.7 24 433.3 30 450 37.7C466.7 45.3 483.3 54.7 500 60.2C516.7 65.7 533.3 67.3 550 74.2C566.7 81 583.3 93 600 90.7C616.7 88.3 633.3 71.7 650 71.7C666.7 71.7 683.3 88.3 700 89.5C716.7 90.7 733.3 76.3 750 72.3C766.7 68.3 783.3 74.7 800 78.3C816.7 82 833.3 83 850 77.8C866.7 72.7 883.3 61.3 891.7 55.7L900 50L900 0L891.7 0C883.3 0 866.7 0 850 0C833.3 0 816.7 0 800 0C783.3 0 766.7 0 750 0C733.3 0 716.7 0 700 0C683.3 0 666.7 0 650 0C633.3 0 616.7 0 600 0C583.3 0 566.7 0 550 0C533.3 0 516.7 0 500 0C483.3 0 466.7 0 450 0C433.3 0 416.7 0 400 0C383.3 0 366.7 0 350 0C333.3 0 316.7 0 300 0C283.3 0 266.7 0 250 0C233.3 0 216.7 0 200 0C183.3 0 166.7 0 150 0C133.3 0 116.7 0 100 0C83.3 0 66.7 0 50 0C33.3 0 16.7 0 8.3 0L0 0Z" fill="#131516"></path><path d="M0 18L8.3 22.5C16.7 27 33.3 36 50 47.5C66.7 59 83.3 73 100 77.3C116.7 81.7 133.3 76.3 150 70.8C166.7 65.3 183.3 59.7 200 55.8C216.7 52 233.3 50 250 53.5C266.7 57 283.3 66 300 70.2C316.7 74.3 333.3 73.7 350 64C366.7 54.3 383.3 35.7 400 36.3C416.7 37 433.3 57 450 67.2C466.7 77.3 483.3 77.7 500 78.2C516.7 78.7 533.3 79.3 550 81.2C566.7 83 583.3 86 600 86.5C616.7 87 633.3 85 650 73.2C666.7 61.3 683.3 39.7 700 35.5C716.7 31.3 733.3 44.7 750 56C766.7 67.3 783.3 76.7 800 79.3C816.7 82 833.3 78 850 69.7C866.7 61.3 883.3 48.7 891.7 42.3L900 36L900 0L891.7 0C883.3 0 866.7 0 850 0C833.3 0 816.7 0 800 0C783.3 0 766.7 0 750 0C733.3 0 716.7 0 700 0C683.3 0 666.7 0 650 0C633.3 0 616.7 0 600 0C583.3 0 566.7 0 550 0C533.3 0 516.7 0 500 0C483.3 0 466.7 0 450 0C433.3 0 416.7 0 400 0C383.3 0 366.7 0 350 0C333.3 0 316.7 0 300 0C283.3 0 266.7 0 250 0C233.3 0 216.7 0 200 0C183.3 0 166.7 0 150 0C133.3 0 116.7 0 100 0C83.3 0 66.7 0 50 0C33.3 0 16.7 0 8.3 0L0 0Z" fill="#181a1b"></path><path d="M0 26L8.3 28.5C16.7 31 33.3 36 50 36.2C66.7 36.3 83.3 31.7 100 36.8C116.7 42 133.3 57 150 57.2C166.7 57.3 183.3 42.7 200 36.3C216.7 30 233.3 32 250 33.3C266.7 34.7 283.3 35.3 300 40.5C316.7 45.7 333.3 55.3 350 58.7C366.7 62 383.3 59 400 56.8C416.7 54.7 433.3 53.3 450 45.8C466.7 38.3 483.3 24.7 500 28.5C516.7 32.3 533.3 53.7 550 60.5C566.7 67.3 583.3 59.7 600 52.7C616.7 45.7 633.3 39.3 650 42.8C666.7 46.3 683.3 59.7 700 62.8C716.7 66 733.3 59 750 50.8C766.7 42.7 783.3 33.3 800 31.2C816.7 29 833.3 34 850 35.7C866.7 37.3 883.3 35.7 891.7 34.8L900 34L900 0L891.7 0C883.3 0 866.7 0 850 0C833.3 0 816.7 0 800 0C783.3 0 766.7 0 750 0C733.3 0 716.7 0 700 0C683.3 0 666.7 0 650 0C633.3 0 616.7 0 600 0C583.3 0 566.7 0 550 0C533.3 0 516.7 0 500 0C483.3 0 466.7 0 450 0C433.3 0 416.7 0 400 0C383.3 0 366.7 0 350 0C333.3 0 316.7 0 300 0C283.3 0 266.7 0 250 0C233.3 0 216.7 0 200 0C183.3 0 166.7 0 150 0C133.3 0 116.7 0 100 0C83.3 0 66.7 0 50 0C33.3 0 16.7 0 8.3 0L0 0Z" fill="#1d1f20"></path><path d="M0 22L8.3 26.8C16.7 31.7 33.3 41.3 50 44.8C66.7 48.3 83.3 45.7 100 38.7C116.7 31.7 133.3 20.3 150 16.7C166.7 13 183.3 17 200 23.3C216.7 29.7 233.3 38.3 250 39.8C266.7 41.3 283.3 35.7 300 32.3C316.7 29 333.3 28 350 30.7C366.7 33.3 383.3 39.7 400 41.7C416.7 43.7 433.3 41.3 450 40C466.7 38.7 483.3 38.3 500 39.2C516.7 40 533.3 42 550 41.5C566.7 41 583.3 38 600 40.3C616.7 42.7 633.3 50.3 650 54.2C666.7 58 683.3 58 700 50.3C716.7 42.7 733.3 27.3 750 19.7C766.7 12 783.3 12 800 12.8C816.7 13.7 833.3 15.3 850 20C866.7 24.7 883.3 32.3 891.7 36.2L900 40L900 0L891.7 0C883.3 0 866.7 0 850 0C833.3 0 816.7 0 800 0C783.3 0 766.7 0 750 0C733.3 0 716.7 0 700 0C683.3 0 666.7 0 650 0C633.3 0 616.7 0 600 0C583.3 0 566.7 0 550 0C533.3 0 516.7 0 500 0C483.3 0 466.7 0 450 0C433.3 0 416.7 0 400 0C383.3 0 366.7 0 350 0C333.3 0 316.7 0 300 0C283.3 0 266.7 0 250 0C233.3 0 216.7 0 200 0C183.3 0 166.7 0 150 0C133.3 0 116.7 0 100 0C83.3 0 66.7 0 50 0C33.3 0 16.7 0 8.3 0L0 0Z" fill="#212324"></path><path d="M0 15L8.3 15C16.7 15 33.3 15 50 17C66.7 19 83.3 23 100 27C116.7 31 133.3 35 150 31.7C166.7 28.3 183.3 17.7 200 18.7C216.7 19.7 233.3 32.3 250 33.8C266.7 35.3 283.3 25.7 300 23.7C316.7 21.7 333.3 27.3 350 29.8C366.7 32.3 383.3 31.7 400 29.8C416.7 28 433.3 25 450 21.3C466.7 17.7 483.3 13.3 500 14.2C516.7 15 533.3 21 550 23.7C566.7 26.3 583.3 25.7 600 22.8C616.7 20 633.3 15 650 17.2C666.7 19.3 683.3 28.7 700 30.8C716.7 33 733.3 28 750 24C766.7 20 783.3 17 800 19.8C816.7 22.7 833.3 31.3 850 34.5C866.7 37.7 883.3 35.3 891.7 34.2L900 33L900 0L891.7 0C883.3 0 866.7 0 850 0C833.3 0 816.7 0 800 0C783.3 0 766.7 0 750 0C733.3 0 716.7 0 700 0C683.3 0 666.7 0 650 0C633.3 0 616.7 0 600 0C583.3 0 566.7 0 550 0C533.3 0 516.7 0 500 0C483.3 0 466.7 0 450 0C433.3 0 416.7 0 400 0C383.3 0 366.7 0 350 0C333.3 0 316.7 0 300 0C283.3 0 266.7 0 250 0C233.3 0 216.7 0 200 0C183.3 0 166.7 0 150 0C133.3 0 116.7 0 100 0C83.3 0 66.7 0 50 0C33.3 0 16.7 0 8.3 0L0 0Z" fill="#262829"></path><path d="M0 10L8.3 12.2C16.7 14.3 33.3 18.7 50 18.2C66.7 17.7 83.3 12.3 100 9.8C116.7 7.3 133.3 7.7 150 7.8C166.7 8 183.3 8 200 10.2C216.7 12.3 233.3 16.7 250 19.2C266.7 21.7 283.3 22.3 300 23C316.7 23.7 333.3 24.3 350 24C366.7 23.7 383.3 22.3 400 19.8C416.7 17.3 433.3 13.7 450 14C466.7 14.3 483.3 18.7 500 18.2C516.7 17.7 533.3 12.3 550 10.5C566.7 8.7 583.3 10.3 600 14C616.7 17.7 633.3 23.3 650 25.8C666.7 28.3 683.3 27.7 700 25.7C716.7 23.7 733.3 20.3 750 19.5C766.7 18.7 783.3 20.3 800 21.2C816.7 22 833.3 22 850 21.5C866.7 21 883.3 20 891.7 19.5L900 19L900 0L891.7 0C883.3 0 866.7 0 850 0C833.3 0 816.7 0 800 0C783.3 0 766.7 0 750 0C733.3 0 716.7 0 700 0C683.3 0 666.7 0 650 0C633.3 0 616.7 0 600 0C583.3 0 566.7 0 550 0C533.3 0 516.7 0 500 0C483.3 0 466.7 0 450 0C433.3 0 416.7 0 400 0C383.3 0 366.7 0 350 0C333.3 0 316.7 0 300 0C283.3 0 266.7 0 250 0C233.3 0 216.7 0 200 0C183.3 0 166.7 0 150 0C133.3 0 116.7 0 100 0C83.3 0 66.7 0 50 0C33.3 0 16.7 0 8.3 0L0 0Z" fill="#2b2d2e"></path></svg>