<svg id="visual" viewBox="0 0 900 600" width="900" height="600" xmlns="http://www.w3.org/2000/svg" xmlns:xlink="http://www.w3.org/1999/xlink" version="1.1"><path d="M0 103L13.7 98C27.3 93 54.7 83 82 84C109.3 85 136.7 97 163.8 95C191 93 218 77 245.2 72C272.3 67 299.7 73 327 71C354.3 69 381.7 59 409 55C436.3 51 463.7 53 491 71C518.3 89 545.7 123 573 139C600.3 155 627.7 153 654.8 139C682 125 709 99 736.2 86C763.3 73 790.7 73 818 75C845.3 77 872.7 81 886.3 83L900 85L900 0L886.3 0C872.7 0 845.3 0 818 0C790.7 0 763.3 0 736.2 0C709 0 682 0 654.8 0C627.7 0 600.3 0 573 0C545.7 0 518.3 0 491 0C463.7 0 436.3 0 409 0C381.7 0 354.3 0 327 0C299.7 0 272.3 0 245.2 0C218 0 191 0 163.8 0C136.7 0 109.3 0 82 0C54.7 0 27.3 0 13.7 0L0 0Z" fill="#282828"></path><path d="M0 211L13.7 202C27.3 193 54.7 175 82 176C109.3 177 136.7 197 163.8 192C191 187 218 157 245.2 152C272.3 147 299.7 167 327 173C354.3 179 381.7 171 409 160C436.3 149 463.7 135 491 145C518.3 155 545.7 189 573 203C600.3 217 627.7 211 654.8 198C682 185 709 165 736.2 161C763.3 157 790.7 169 818 169C845.3 169 872.7 157 886.3 151L900 145L900 83L886.3 81C872.7 79 845.3 75 818 73C790.7 71 763.3 71 736.2 84C709 97 682 123 654.8 137C627.7 151 600.3 153 573 137C545.7 121 518.3 87 491 69C463.7 51 436.3 49 409 53C381.7 57 354.3 67 327 69C299.7 71 272.3 65 245.2 70C218 75 191 91 163.8 93C136.7 95 109.3 83 82 82C54.7 81 27.3 91 13.7 96L0 101Z" fill="#181818"></path><path d="M0 331L13.7 329C27.3 327 54.7 323 82 319C109.3 315 136.7 311 163.8 308C191 305 218 303 245.2 310C272.3 317 299.7 333 327 342C354.3 351 381.7 353 409 346C436.3 339 463.7 323 491 319C518.3 315 545.7 323 573 338C600.3 353 627.7 375 654.8 370C682 365 709 333 736.2 321C763.3 309 790.7 317 818 312C845.3 307 872.7 289 886.3 280L900 271L900 143L886.3 149C872.7 155 845.3 167 818 167C790.7 167 763.3 155 736.2 159C709 163 682 183 654.8 196C627.7 209 600.3 215 573 201C545.7 187 518.3 153 491 143C463.7 133 436.3 147 409 158C381.7 169 354.3 177 327 171C299.7 165 272.3 145 245.2 150C218 155 191 185 163.8 190C136.7 195 109.3 175 82 174C54.7 173 27.3 191 13.7 200L0 209Z" fill="#000000"></path><path d="M0 391L13.7 387C27.3 383 54.7 375 82 372C109.3 369 136.7 371 163.8 371C191 371 218 369 245.2 379C272.3 389 299.7 411 327 425C354.3 439 381.7 445 409 437C436.3 429 463.7 407 491 403C518.3 399 545.7 413 573 424C600.3 435 627.7 443 654.8 439C682 435 709 419 736.2 406C763.3 393 790.7 383 818 371C845.3 359 872.7 345 886.3 338L900 331L900 269L886.3 278C872.7 287 845.3 305 818 310C790.7 315 763.3 307 736.2 319C709 331 682 363 654.8 368C627.7 373 600.3 351 573 336C545.7 321 518.3 313 491 317C463.7 321 436.3 337 409 344C381.7 351 354.3 349 327 340C299.7 331 272.3 315 245.2 308C218 301 191 303 163.8 306C136.7 309 109.3 313 82 317C54.7 321 27.3 325 13.7 327L0 329Z" fill="#000000"></path><path d="M0 601L13.7 601C27.3 601 54.7 601 82 601C109.3 601 136.7 601 163.8 601C191 601 218 601 245.2 601C272.3 601 299.7 601 327 601C354.3 601 381.7 601 409 601C436.3 601 463.7 601 491 601C518.3 601 545.7 601 573 601C600.3 601 627.7 601 654.8 601C682 601 709 601 736.2 601C763.3 601 790.7 601 818 601C845.3 601 872.7 601 886.3 601L900 601L900 329L886.3 336C872.7 343 845.3 357 818 369C790.7 381 763.3 391 736.2 404C709 417 682 433 654.8 437C627.7 441 600.3 433 573 422C545.7 411 518.3 397 491 401C463.7 405 436.3 427 409 435C381.7 443 354.3 437 327 423C299.7 409 272.3 387 245.2 377C218 367 191 369 163.8 369C136.7 369 109.3 367 82 370C54.7 373 27.3 381 13.7 385L0 389Z" fill="#000000"></path></svg>